<?xml version="1.0" encoding="utf-8"?>
<!-- Generator: Adobe Illustrator 18.1.1, SVG Export Plug-In . SVG Version: 6.00 Build 0)  -->
<!DOCTYPE svg PUBLIC "-//W3C//DTD SVG 1.1//EN" "http://www.w3.org/Graphics/SVG/1.1/DTD/svg11.dtd">
<svg version="1.1" id="Layer_1" xmlns="http://www.w3.org/2000/svg" xmlns:xlink="http://www.w3.org/1999/xlink" x="0px" y="0px"
	 viewBox="0 0 934 576" enable-background="new 0 0 934 576" xml:space="preserve">
<polygon points="311.6,370.6 313.2,366.3 313.2,366.3 "/>
<polygon points="378.5,354.5 380.5,359.7 378.6,354.5 "/>
<path d="M306.8,352.1l1.4-3.9h0l7.9-21.8h0c4.3-12.2,8.5-24,12.7-35.3c4.1-11.3,8.3-22.8,12.5-34.7l20,55.9l13.2,35.9h0l1.8,5.1
	l2.1,5.7l0,0l14.8,41.1h27.8l-62.3-171.3h-33.7l-63.8,171.3h28l14.8-40.9h0L306.8,352.1z"/>
<path d="M470.5,335.8v-79.7h39.8c5.4,0,10.6,1.1,15.4,3.1c4.8,2.1,9,4.9,12.6,8.5c3.6,3.6,6.5,7.9,8.5,12.7
	c2.1,4.8,3.1,10.1,3.1,15.5c0,5.4-1.1,10.6-3.1,15.5c-2.1,4.8-4.9,9.1-8.5,12.7c-3.6,3.6-7.8,6.5-12.6,8.5c-4.8,2.1-10,3.1-15.4,3.1
	h-0.5l19.1,53.4l4,9.2h28.7l-18.6-43.9l3.1-1.9c4.8-3,9.2-6.6,13.1-10.7c3.9-4.1,7.2-8.6,9.8-13.5c2.7-4.9,4.8-10.1,6.2-15.5
	c1.4-5.4,2.2-11.1,2.2-16.8c0-6.1-0.8-12.1-2.4-17.7c-1.6-5.7-3.9-11-6.8-16c-2.9-5-6.4-9.5-10.5-13.6c-4.1-4.1-8.6-7.6-13.5-10.5
	c-4.9-2.9-10.3-5.2-15.9-6.8c-5.6-1.6-11.6-2.4-17.7-2.4h-67v169.4h27.1v-35.6l0.1,0v-27H470.5z"/>
<path d="M727.1,360.2c-4.7,4.2-10.1,7.6-16,10.1c-15.3,6.5-33.1,6.4-47.7,0c-7.3-3.2-13.8-7.6-19.3-13c-5.5-5.5-9.9-12-13-19.2
	c-3.2-7.3-4.8-15.3-4.8-23.6c0-8.3,1.6-16.3,4.8-23.7c3.2-7.4,7.6-13.9,13.1-19.3c5.5-5.4,12-9.8,19.3-13c14.7-6.4,32.5-6.4,47.7,0
	c5.9,2.5,11.3,5.9,16,10.1l14.2-23.3c-7.2-5.7-15.1-10.2-23.7-13.4c-9.7-3.6-20-5.4-30.4-5.4c-8,0-15.8,1.1-23.2,3.1
	c-7.4,2.1-14.5,5.1-21,8.9c-6.5,3.8-12.5,8.5-17.8,13.8c-5.3,5.3-10,11.3-13.8,17.8c-3.8,6.5-6.8,13.5-8.9,21
	c-2.1,7.4-3.1,15.3-3.1,23.3c0,8,1.1,15.8,3.1,23.2c2.1,7.4,5.1,14.5,8.9,21c3.8,6.5,8.5,12.5,13.8,17.8c5.3,5.3,11.3,10,17.8,13.8
	c6.5,3.8,13.5,6.8,21,8.9c7.4,2.1,15.2,3.1,23.2,3.1c10.4,0,20.7-1.8,30.4-5.4c8.6-3.2,16.6-7.7,23.7-13.3L727.1,360.2z"/>
<polygon points="878.3,300.2 798.7,300.2 798.7,229 771.6,229 771.6,398.5 798.7,398.5 798.7,327.4 878.3,327.4 878.3,398.5 
	905.4,398.5 905.4,229 878.3,229 "/>
<g>
	<path d="M223.9,356c-10.8-4.1-20.4-10.7-30.3-18.3c17.5,10.9,46.4,11.1,60.5-3.4c-7.4,2-11.7,2.1-11.7,2.1
		c7.1-4.8,10.5-9.5,11.5-11.2c-0.9-7.6-2.7-15.2-5-22.6c-2.6-8.2-6.3-16.1-10.6-23.8c-8.4,8.8-19.6,15.4-32.9,19.5
		c0,0-20.9,6.4-20.9,6.4c22-6.7,36.2-20.4,44.3-37.9c-3.3,2.6-5.4,3.6-5.4,3.6c2.8-4.6,3.6-8.2,3.8-9.6c-7.7-11.4-16.2-22.7-24-34.2
		c-4.2,5.9-10.1,10.8-17.3,14.5c0,0-11.3,5.8-11.3,5.8c12.5-6.4,19.8-16.3,23.1-27.8c-2,1.6-3.2,2.2-3.2,2.2
		c1.5-2.4,1.9-4.3,2.1-5.1L147.1,128c3.4-1.6,5.8-5,5.8-9c0-5.5-4.4-9.9-9.9-9.9c-0.1,0-0.1,0-0.2,0v19.8c0,0,0,0,0,0l0,124.5
		c3.7,8,23.8,72.3,0,76.4v2.7c0,0,0,0.1,0,0.1l0,54.9l73.2,25.2c5.5-0.7,24-25.3,25-26.9c5.2-8.2,8.7-16.6,11-25.2
		C242.7,361.3,233,359.4,223.9,356z"/>
</g>
<g>
	<path d="M137.4,253.4l0-133.1l-0.1,0.1V114c-0.1,0-0.1,0-0.2,0c-5.5,0-9.9,4.4-9.9,9.9c0,3.1,1.5,5.9,3.8,7.8L83.8,216
		c0.1,0.9,0.6,2.7,2.1,5.1c0,0-1.3-0.6-3.2-2.2c3.2,11.5,10.5,21.5,23.1,27.8c0,0-11.3-5.8-11.3-5.8c-7.3-3.7-13.2-8.6-17.3-14.5
		c-7.8,11.5-16.3,22.7-24,34.2c0.2,1.3,0.9,5,3.8,9.6c0,0-2.1-1-5.4-3.6c8,17.5,22.3,31.2,44.3,37.9c0,0-20.9-6.4-20.9-6.4
		c-13.4-4.1-24.6-10.7-32.9-19.5c-4.3,7.8-8,15.7-10.6,23.8c-2.4,7.4-4.1,15-5,22.6c1.1,1.7,4.4,6.4,11.5,11.2c0,0-4.2-0.1-11.7-2.1
		c14.1,14.4,43,14.3,60.5,3.4c-9.8,7.6-19.4,14.2-30.3,18.3c-9.1,3.5-18.8,5.3-28,4.7c2.2,8.6,5.8,17,11,25.2
		c1,1.6,19.5,26.2,25,26.9l73.2-25.2l0-54.9c0-0.1,0-0.1,0-0.1v-2.7C113.6,325.6,133.7,261.4,137.4,253.4z"/>
</g>
</svg>
