<?xml version="1.0" encoding="utf-8"?>
<!-- Generator: Adobe Illustrator 18.1.1, SVG Export Plug-In . SVG Version: 6.00 Build 0)  -->
<!DOCTYPE svg PUBLIC "-//W3C//DTD SVG 1.1//EN" "http://www.w3.org/Graphics/SVG/1.1/DTD/svg11.dtd">
<svg version="1.1" id="Layer_1" xmlns="http://www.w3.org/2000/svg" xmlns:xlink="http://www.w3.org/1999/xlink" x="0px" y="0px"
	 viewBox="0 0 1920 1080" enable-background="new 0 0 1920 1080" xml:space="preserve">
<polygon points="631.7,694.9 634.7,686.8 634.7,686.8 "/>
<polygon points="757.2,664.7 760.9,674.4 757.3,664.7 "/>
<path fill="#AD9973" d="M622.7,660.2l2.6-7.3l0,0l14.8-40.9l0,0c8.1-22.9,15.9-45,23.8-66.2c7.7-21.2,15.6-42.7,23.4-65.1
	l37.5,104.8l24.8,67.3l0,0l3.4,9.6l3.9,10.7l0,0l27.7,77.1h52.1L720,429h-63.2L537.2,750.2h52.5l27.8-76.7l0,0L622.7,660.2z"/>
<path fill="#AD9973" d="M929.7,629.6V480.2h74.6c10.1,0,19.9,2.1,28.9,5.8c9,3.9,16.9,9.2,23.6,15.9c6.7,6.8,12.2,14.8,15.9,23.8
	c3.9,9,5.8,18.9,5.8,29.1s-2.1,19.9-5.8,29.1c-3.9,9-9.2,17.1-15.9,23.8c-6.8,6.8-14.6,12.2-23.6,15.9c-9,3.9-18.8,5.8-28.9,5.8
	h-0.9l35.8,100.1l7.5,17.3h53.8l-34.9-82.3l5.8-3.6c9-5.6,17.2-12.4,24.6-20.1c7.3-7.7,13.5-16.1,18.4-25.3
	c5.1-9.2,9-18.9,11.6-29.1c2.6-10.1,4.1-20.8,4.1-31.5c0-11.4-1.5-22.7-4.5-33.2c-3-10.7-7.3-20.6-12.8-30s-12-17.8-19.7-25.5
	s-16.1-14.3-25.3-19.7c-9.2-5.4-19.3-9.8-29.8-12.8s-21.8-4.5-33.2-4.5H879.2V747H930v-66.8h0.2v-50.6L929.7,629.6L929.7,629.6z"/>
<path fill="#AD9973" d="M1410.8,675.4c-8.8,7.9-18.9,14.3-30,18.9c-28.7,12.2-62.1,12-89.4,0c-13.7-6-25.9-14.3-36.2-24.4
	c-10.3-10.3-18.6-22.5-24.4-36c-6-13.7-9-28.7-9-44.2c0-15.6,3-30.6,9-44.4c6-13.9,14.2-26.1,24.6-36.2s22.5-18.4,36.2-24.4
	c27.6-12,60.9-12,89.4,0c11.1,4.7,21.2,11.1,30,18.9l26.6-43.7c-13.5-10.7-28.3-19.1-44.4-25.1c-18.2-6.8-37.5-10.1-57-10.1
	c-15,0-29.6,2.1-43.5,5.8c-13.9,3.9-27.2,9.6-39.4,16.7c-12.2,7.1-23.4,15.9-33.4,25.9c-9.9,9.9-18.8,21.2-25.9,33.4
	c-7.1,12.2-12.8,25.3-16.7,39.4c-3.9,13.9-5.8,28.7-5.8,43.7s2.1,29.6,5.8,43.5c3.9,13.9,9.6,27.2,16.7,39.4s15.9,23.4,25.9,33.4
	c9.9,9.9,21.2,18.8,33.4,25.9c12.2,7.1,25.3,12.8,39.4,16.7c13.9,3.9,28.5,5.8,43.5,5.8c19.5,0,38.8-3.4,57-10.1
	c16.1-6,31.1-14.4,44.4-24.9L1410.8,675.4z"/>
<polygon fill="#AD9973" points="1694.3,562.9 1545,562.9 1545,429.4 1494.2,429.4 1494.2,747.2 1545,747.2 1545,613.9 1694.3,613.9 
	1694.3,747.2 1745.1,747.2 1745.1,429.4 1694.3,429.4 "/>
<g>
	<path d="M467.3,667.5c-20.3-7.7-38.2-20.1-56.8-34.3c32.8,20.4,87,20.8,113.4-6.4c-13.9,3.8-21.9,3.9-21.9,3.9
		c13.3-9,19.7-17.8,21.6-21c-1.7-14.2-5.1-28.5-9.4-42.4c-4.9-15.4-11.8-30.2-19.9-44.6c-15.8,16.5-36.8,28.9-61.7,36.6l-39.2,12
		c41.2-12.6,67.9-38.2,83.1-71.1c-6.2,4.9-10.1,6.8-10.1,6.8c5.2-8.6,6.8-15.4,7.1-18c-14.4-21.4-30.4-42.6-45-64.1
		c-7.9,11.1-18.9,20.3-32.4,27.2L374.9,463c23.4-12,37.1-30.6,43.3-52.1c-3.8,3-6,4.1-6,4.1c2.8-4.5,3.6-8.1,3.9-9.6L323.3,240
		c6.4-3,10.9-9.4,10.9-16.9c0-10.3-8.2-18.6-18.6-18.6c-0.2,0-0.2,0-0.4,0v37.1l0,0V475c6.9,15,44.6,135.6,0,143.2v5.1v0.2v102.9
		l137.2,47.2c10.3-1.3,45-47.4,46.9-50.4c9.8-15.4,16.3-31.1,20.6-47.3C502.5,677.4,484.3,673.9,467.3,667.5z"/>
</g>
<g>
	<path d="M305.1,475.1V225.6l-0.2,0.2v-12c-0.2,0-0.2,0-0.4,0c-10.3,0-18.6,8.2-18.6,18.6c0,5.8,2.8,11.1,7.1,14.6l-88.4,158
		c0.2,1.7,1.1,5.1,3.9,9.6c0,0-2.4-1.1-6-4.1c6,21.6,19.7,40.3,43.3,52.1l-21.2-10.9c-13.7-6.9-24.8-16.1-32.4-27.2
		c-14.6,21.6-30.6,42.6-45,64.1c0.4,2.4,1.7,9.4,7.1,18c0,0-3.9-1.9-10.1-6.8c15,32.8,41.8,58.5,83.1,71.1l-39.2-12
		c-25.1-7.7-46.1-20.1-61.7-36.6c-8.1,14.6-15,29.4-19.9,44.6c-4.5,13.9-7.7,28.1-9.4,42.4c2.1,3.2,8.2,12,21.6,21
		c0,0-7.9-0.2-21.9-3.9c26.4,27,80.6,26.8,113.4,6.4c-18.4,14.2-36.4,26.6-56.8,34.3c-17.1,6.6-35.2,9.9-52.5,8.8
		c4.1,16.1,10.9,31.9,20.6,47.2c1.9,3,36.6,49.1,46.9,50.4l137.2-47.2V623.4c0-0.2,0-0.2,0-0.2v-5.1
		C260.5,610.5,298.2,490.1,305.1,475.1z"/>
</g>
<polygon fill="#FFFFFF" points="1747,589.8 492.9,757.8 1744,757.8 "/>
<polygon fill="#231F20" points="499.1,800 1811.6,627.6 1820.6,602.1 513.8,773.3 "/>
<line fill="none" stroke="#AD9973" stroke-width="20.6651" stroke-miterlimit="10" x1="699.1" y1="817.7" x2="1605.9" y2="699.2"/>
</svg>
