<?xml version="1.0" encoding="utf-8"?>
<!-- Generator: Adobe Illustrator 18.1.1, SVG Export Plug-In . SVG Version: 6.00 Build 0)  -->
<!DOCTYPE svg PUBLIC "-//W3C//DTD SVG 1.1//EN" "http://www.w3.org/Graphics/SVG/1.1/DTD/svg11.dtd">
<svg version="1.1" id="Layer_1" xmlns="http://www.w3.org/2000/svg" xmlns:xlink="http://www.w3.org/1999/xlink" x="0px" y="0px"
	 viewBox="0 0 800 800" enable-background="new 0 0 800 800" xml:space="preserve">
<g>
	<path fill="#FFFFFF" d="M105.6,694.7c0-196,0-391.9,0-588c195.9,0,391.8,0,587.9,0c0,195.9,0,391.9,0,588
		C497.6,694.7,301.6,694.7,105.6,694.7z M436.1,319.3c0-17.3-0.1-33.7,0-50.1c0.2-15.8,5.8-21.3,21.7-21.4c15.1-0.1,30.2,0,45.4,0
		c2,0,4-0.2,6.4-0.3c0-26.5,0-52.3,0-78.1c0-1.3-0.2-2.6-0.3-4.7c-6,0-11.9-0.1-17.8,0c-25.2,0.5-50.6-0.4-75.7,2
		c-46.6,4.6-72.2,32.2-74.9,79c-1.1,18.9-0.4,37.9-0.5,56.8c0,5.3,0,10.6,0,16.8c-16.9,0-33.2,0-49.3,0c0,27.5,0,54.2,0,81.5
		c16.6,0,32.8,0,49.5,0c0,79.3,0,157.9,0,236.7c32,0,63.5,0,95.7,0c0-79.5,0-158.6,0-238.2c18.6,0,36.6,0,54.6,0
		c11.2,0,11.4,0,12.4-11c2.1-22.8,4.1-45.7,6.2-69C485.1,319.3,461.1,319.3,436.1,319.3z"/>
	<path d="M436.1,319.3c24.9,0,49,0,73.4,0c-2.1,23.4-4,46.2-6.2,69c-1,11-1.2,11-12.4,11c-18,0-35.9,0-54.6,0
		c0,79.5,0,158.6,0,238.2c-32.2,0-63.6,0-95.7,0c0-78.8,0-157.4,0-236.7c-16.7,0-32.8,0-49.5,0c0-27.4,0-54,0-81.5
		c16.1,0,32.4,0,49.3,0c0-6.1,0-11.4,0-16.8c0.1-18.9-0.6-37.9,0.5-56.8c2.7-46.9,28.3-74.5,74.9-79c25-2.5,50.4-1.5,75.7-2
		c5.9-0.1,11.8,0,17.8,0c0.2,2.1,0.3,3.4,0.3,4.7c0,25.8,0,51.6,0,78.1c-2.4,0.1-4.4,0.3-6.4,0.3c-15.1,0-30.2-0.1-45.4,0
		c-15.9,0.1-21.5,5.7-21.7,21.4C436,285.5,436.1,302,436.1,319.3z"/>
</g>
</svg>
