<?xml version="1.0" encoding="utf-8"?>
<!-- Generator: Adobe Illustrator 18.1.1, SVG Export Plug-In . SVG Version: 6.00 Build 0)  -->
<!DOCTYPE svg PUBLIC "-//W3C//DTD SVG 1.1//EN" "http://www.w3.org/Graphics/SVG/1.1/DTD/svg11.dtd">
<svg version="1.1" id="Layer_1" xmlns="http://www.w3.org/2000/svg" xmlns:xlink="http://www.w3.org/1999/xlink" x="0px" y="0px"
	 viewBox="0 0 1920 1080" enable-background="new 0 0 1920 1080" xml:space="preserve">
<g>
	<path d="M1045.2,347.8c57,0,112.1,0,168.1,0c-4.8,53.6-9.2,105.9-14.3,158.1c-2.2,25.1-2.7,25.1-28.3,25.1c-41.2,0-82.3,0-125,0
		c0,182.1,0,363.3,0,545.6c-73.8,0-145.7,0-219.2,0c0-180.5,0-360.5,0-542.1c-38.2,0-75.2,0-113.3,0c0-62.8,0-123.7,0-186.6
		c36.8,0,74.1,0,113,0c0-13.9,0-26.1,0-38.5c0.2-43.3-1.4-86.9,1.2-130.1c6.1-107.4,64.8-170.7,171.5-181
		c57.3-5.8,115.4-3.4,173.4-4.6c13.6-0.2,27,0,40.7,0c0.5,4.8,0.7,7.8,0.7,10.7c0,59,0,118.3,0,178.8c-5.4,0.2-10,0.7-14.6,0.7
		c-34.6,0-69.2-0.2-104,0c-36.5,0.2-49.2,13.1-49.7,49C1045,270.3,1045.2,308.1,1045.2,347.8z"/>
</g>
</svg>
