<?xml version="1.0" encoding="utf-8"?>
<!-- Generator: Adobe Illustrator 18.1.1, SVG Export Plug-In . SVG Version: 6.00 Build 0)  -->
<!DOCTYPE svg PUBLIC "-//W3C//DTD SVG 1.1//EN" "http://www.w3.org/Graphics/SVG/1.1/DTD/svg11.dtd">
<svg version="1.1" id="Layer_1" xmlns="http://www.w3.org/2000/svg" xmlns:xlink="http://www.w3.org/1999/xlink" x="0px" y="0px"
	 viewBox="0 0 1920 1080" enable-background="new 0 0 1920 1080" xml:space="preserve">
<g>
	<g>
		<path fill="#CFAD52" d="M824.7,276.4c44.1,0,84-0.2,124.2,0c98.5,0.2,197-0.5,295.4,1.5c65.8,1.4,108.2,45.2,111.7,110.9
			c0.9,17.5,1.5,35.4-1.2,52.9c-9.4,63.1-45.9,93.4-110.4,93.4c-133.3,0-266.5,0-400,0c-5.3,0-10.7,0-16.5,0
			c-0.7,2.6-1.9,4.1-1.9,5.8c0.5,51-5.1,102.9,2.7,152.9C841,772,878.6,800.1,951.9,807.1c17,1.5,34.2,1.2,51.4,1.2
			c76.5,0.5,152.7,0.2,229.1,1.2c72.6,0.7,119.4,45.9,123.8,118.2c1.9,27.7-0.2,55.1-11.1,81.1c-18.9,45.2-53.6,71.6-102.2,72.3
			c-118,1.5-236.1,3.4-353.8-0.9c-83.9-3.2-156.6-40.5-219.1-95.9C590.5,913,551.5,824.2,552.2,716.8c1.2-182.2,0.5-364.3,0.2-546.5
			c0-41.8,8.7-80.8,33-115.3C606.5,25,635.9,8.2,672,5.6c22.3-1.5,45.2,0,67.5,3.1c37.6,4.8,62.3,27.7,70.2,64.1
			c7.3,32.8,11.6,66.8,13.8,100.4C826.6,207,824.7,241.5,824.7,276.4z"/>
	</g>
</g>
</svg>
