<?xml version="1.0" encoding="utf-8"?>
<!-- Generator: Adobe Illustrator 18.1.1, SVG Export Plug-In . SVG Version: 6.00 Build 0)  -->
<!DOCTYPE svg PUBLIC "-//W3C//DTD SVG 1.1//EN" "http://www.w3.org/Graphics/SVG/1.1/DTD/svg11.dtd">
<svg version="1.1" id="Layer_1" xmlns="http://www.w3.org/2000/svg" xmlns:xlink="http://www.w3.org/1999/xlink" x="0px" y="0px"
	 viewBox="0 0 1920 1080" enable-background="new 0 0 1920 1080" xml:space="preserve">
<g>
	<path d="M1192.9,382.1c105.4,0,207.3,0,313.3,0c0,10.3,0,19.4,0,29.1c0,148.5,0,296.3,0,444.8c0,130.9-91.5,221.8-221.2,221.8
		c-213.3,0-426,0-639.3,0c-127.9,0-218.8-90.9-218.8-218.8c0-149.7,0-300,0-449.7c0-8.5,0.6-17,1.2-26.7c103.6,0,205.4,0,307.9,0
		c-73.3,165.4-50.9,292.7,65.4,380c102.4,76.4,244.8,71.5,343-12.1C1231.7,676.7,1283.8,531.2,1192.9,382.1z"/>
	<path d="M634.7,260.3c0-89.1,0-176.3,0-265.4c10.9-0.6,18.8-0.6,29.7-1.2c0,89.1,0,177,0,266c14.5,0,27.3,0,43.6,0
		c0-87.3,0-175.1,0-266.6c12.7,0,22.4,0,31.5,0c182.4,0,364.8,0,547.2,0c126.1,0,218.8,93.3,219.4,220c0,43.6,0,87.3,0,132.7
		c-11.5,0.6-20,1.8-28.5,1.8c-97.6,0-194.5,0.6-292.1-0.6c-13.3,0-29.1-6.1-39.4-14.5c-106.7-90.3-257.6-89.7-364.2,1.8
		c-7.3,6.1-18.2,12.7-27.3,12.7c-105.4,0.6-210.3,0.6-315.7,0.6c-3,0-6.7-1.2-15.8-3c3-63.6,1.8-127.9,10.3-190.3
		c6.7-49.7,37.6-89.1,83-121.8c0,78.8,0,152.7,0,227.9c14.5,0,26.7,0,42.4,0c0-22.4,0-44.8,0-67.3c0-53.3,1.2-107.3-0.6-160.6
		C557.8,8.8,566.9,1,591.1,2.2c0,86.1,0,171.5,0,258.2C605.6,260.3,617.8,260.3,634.7,260.3z M1407.4,178.5c0-19.4,0-38.8,0-57.6
		c0-24.8-13.3-37.6-37.6-38.2c-35.8-0.6-71.5-0.6-107.9,0c-22.4,0.6-37,12.1-37.6,35.1c-1.2,38.8-1.2,77,0,115.7
		c0.6,21.2,12.7,34.5,34.5,34.5c37.6,0.6,75.1,0.6,112.7,0c23-0.6,35.1-13.9,35.1-37C1407.4,213.7,1407.4,196.1,1407.4,178.5z"/>
	<path d="M752.3,540.9c0-118.2,93.9-212.1,212.1-212.7c118.8-0.6,215.7,96.4,214.5,213.9S1082,754.8,965,754.2
		C847.4,753.6,752.9,658.5,752.3,540.9z M1122.6,540.3c0-86.7-71.5-158.2-157.6-157.6c-85.4,0.6-155.1,70.3-155.7,155.7
		c-0.6,86.7,69.7,158.2,156.4,158.2C1052.3,697.9,1122.6,627.6,1122.6,540.3z"/>
</g>
</svg>
