<?xml version="1.0" encoding="utf-8"?>
<!-- Generator: Adobe Illustrator 18.1.1, SVG Export Plug-In . SVG Version: 6.00 Build 0)  -->
<!DOCTYPE svg PUBLIC "-//W3C//DTD SVG 1.1//EN" "http://www.w3.org/Graphics/SVG/1.1/DTD/svg11.dtd">
<svg version="1.1" id="Layer_1" xmlns="http://www.w3.org/2000/svg" xmlns:xlink="http://www.w3.org/1999/xlink" x="0px" y="0px"
	 viewBox="0 0 302 300" enable-background="new 0 0 302 300" xml:space="preserve">
<g>
	<path d="M188.9,124.5c17.4,0,34.2,0,51.7,0c0,1.7,0,3.2,0,4.8c0,24.5,0,48.9,0,73.4c0,21.6-15.1,36.6-36.5,36.6
		c-35.2,0-70.3,0-105.5,0c-21.1,0-36.1-15-36.1-36.1c0-24.7,0-49.5,0-74.2c0-1.4,0.1-2.8,0.2-4.4c17.1,0,33.9,0,50.8,0
		c-12.1,27.3-8.4,48.3,10.8,62.7c16.9,12.6,40.4,11.8,56.6-2C195.3,173.1,203.9,149.1,188.9,124.5z"/>
	<path d="M96.8,104.4c0-14.7,0-29.1,0-43.8c1.8-0.1,3.1-0.1,4.9-0.2c0,14.7,0,29.2,0,43.9c2.4,0,4.5,0,7.2,0c0-14.4,0-28.9,0-44
		c2.1,0,3.7,0,5.2,0c30.1,0,60.2,0,90.3,0c20.8,0,36.1,15.4,36.2,36.3c0,7.2,0,14.4,0,21.9c-1.9,0.1-3.3,0.3-4.7,0.3
		c-16.1,0-32.1,0.1-48.2-0.1c-2.2,0-4.8-1-6.5-2.4c-17.6-14.9-42.5-14.8-60.1,0.3c-1.2,1-3,2.1-4.5,2.1c-17.4,0.1-34.7,0.1-52.1,0.1
		c-0.5,0-1.1-0.2-2.6-0.5c0.5-10.5,0.3-21.1,1.7-31.4c1.1-8.2,6.2-14.7,13.7-20.1c0,13,0,25.2,0,37.6c2.4,0,4.4,0,7,0
		c0-3.7,0-7.4,0-11.1c0-8.8,0.2-17.7-0.1-26.5c-0.1-3.9,1.4-5.2,5.4-5c0,14.2,0,28.3,0,42.6C92,104.4,94,104.4,96.8,104.4z
		 M224.3,90.9c0-3.2,0-6.4,0-9.5c0-4.1-2.2-6.2-6.2-6.3c-5.9-0.1-11.8-0.1-17.8,0c-3.7,0.1-6.1,2-6.2,5.8c-0.2,6.4-0.2,12.7,0,19.1
		c0.1,3.5,2.1,5.7,5.7,5.7c6.2,0.1,12.4,0.1,18.6,0c3.8-0.1,5.8-2.3,5.8-6.1C224.3,96.7,224.3,93.8,224.3,90.9z"/>
	<path d="M116.2,150.7c0-19.5,15.5-35,35-35.1c19.6-0.1,35.6,15.9,35.4,35.3c-0.2,19.4-16,35.1-35.3,35
		C131.9,185.8,116.3,170.1,116.2,150.7z M177.3,150.6c0-14.3-11.8-26.1-26-26c-14.1,0.1-25.6,11.6-25.7,25.7
		c-0.1,14.3,11.5,26.1,25.8,26.1C165.7,176.6,177.3,165,177.3,150.6z"/>
</g>
</svg>
