<?xml version="1.0" encoding="utf-8"?>
<!-- Generator: Adobe Illustrator 18.1.1, SVG Export Plug-In . SVG Version: 6.00 Build 0)  -->
<!DOCTYPE svg PUBLIC "-//W3C//DTD SVG 1.1//EN" "http://www.w3.org/Graphics/SVG/1.1/DTD/svg11.dtd">
<svg version="1.1" id="Layer_1" xmlns="http://www.w3.org/2000/svg" xmlns:xlink="http://www.w3.org/1999/xlink" x="0px" y="0px"
	 viewBox="0 0 1920 1080" enable-background="new 0 0 1920 1080" xml:space="preserve">
<g>
	<path fill="#CFAD52" d="M1096.4,448.2c62.6,0,123.1,0,186.1,0c0,6.1,0,11.5,0,17.3c0,88.2,0,176,0,264.2
		c0,77.8-54.4,131.8-131.4,131.8c-126.7,0-253.1,0-379.8,0c-76,0-130-54-130-130c0-88.9,0-178.2,0-267.1c0-5,0.4-10.1,0.7-15.8
		c61.6,0,122,0,182.9,0c-43.6,98.3-30.2,173.9,38.9,225.7c60.8,45.4,145.4,42.5,203.8-7.2C1119.5,623.2,1150.4,536.8,1096.4,448.2z"
		/>
	<path fill="#CFAD52" d="M764.9,375.8c0-52.9,0-104.8,0-157.7c6.5-0.4,11.2-0.4,17.6-0.7c0,52.9,0,105.1,0,158c8.6,0,16.2,0,25.9,0
		c0-51.8,0-104,0-158.4c7.6,0,13.3,0,18.7,0c108.4,0,216.7,0,325.1,0c74.9,0,130,55.4,130.3,130.7c0,25.9,0,51.8,0,78.8
		c-6.8,0.4-11.9,1.1-16.9,1.1c-58,0-115.6,0.4-173.5-0.4c-7.9,0-17.3-3.6-23.4-8.6c-63.4-53.6-153-53.3-216.4,1.1
		c-4.3,3.6-10.8,7.6-16.2,7.6c-62.6,0.4-124.9,0.4-187.6,0.4c-1.8,0-4-0.7-9.4-1.8c1.8-37.8,1.1-76,6.1-113
		c4-29.5,22.3-52.9,49.3-72.4c0,46.8,0,90.7,0,135.4c8.6,0,15.8,0,25.2,0c0-13.3,0-26.6,0-40c0-31.7,0.7-63.7-0.4-95.4
		c-0.4-14,5-18.7,19.4-18c0,51.1,0,101.9,0,153.4C747.6,375.8,754.8,375.8,764.9,375.8z M1223.9,327.2c0-11.5,0-23,0-34.2
		c0-14.8-7.9-22.3-22.3-22.7c-21.2-0.4-42.5-0.4-64.1,0c-13.3,0.4-22,7.2-22.3,20.9c-0.7,23-0.7,45.7,0,68.8
		c0.4,12.6,7.6,20.5,20.5,20.5c22.3,0.4,44.6,0.4,67,0c13.7-0.4,20.9-8.3,20.9-22C1223.9,348.1,1223.9,337.7,1223.9,327.2z"/>
	<path fill="#CFAD52" d="M834.7,542.5c0-70.2,55.8-126,126-126.4c70.6-0.4,128.2,57.2,127.4,127.1s-57.6,126.4-127.1,126
		C891.2,668.9,835.1,612.4,834.7,542.5z M1054.7,542.2c0-51.5-42.5-94-93.6-93.6c-50.8,0.4-92.2,41.8-92.5,92.5
		c-0.4,51.5,41.4,94,92.9,94C1012.9,635.8,1054.7,594,1054.7,542.2z"/>
</g>
</svg>
