<?xml version="1.0" encoding="utf-8"?>
<!-- Generator: Adobe Illustrator 18.1.1, SVG Export Plug-In . SVG Version: 6.00 Build 0)  -->
<!DOCTYPE svg PUBLIC "-//W3C//DTD SVG 1.1//EN" "http://www.w3.org/Graphics/SVG/1.1/DTD/svg11.dtd">
<svg version="1.1" id="Layer_1" xmlns="http://www.w3.org/2000/svg" xmlns:xlink="http://www.w3.org/1999/xlink" x="0px" y="0px"
	 viewBox="0 0 1920 1080" enable-background="new 0 0 1920 1080" xml:space="preserve">
<g>
	<path fill="#CFAD52" d="M1042.2,354.4c57.1,0,112.3,0,168.2,0c-4.8,53.6-9.2,105.9-14.2,158.2c-2.3,25.2-2.8,25.2-28.4,25.2
		c-41.3,0-82.3,0-125.2,0c0,182.2,0,363.5,0,546c-73.8,0-145.8,0-219.4,0c0-180.6,0-360.8,0-542.6c-38.3,0-75.2,0-113.5,0
		c0-62.8,0-123.8,0-186.8c36.9,0,74.3,0,113,0c0-14,0-26.1,0-38.5c0.2-43.3-1.4-86.9,1.1-130.2C830.2,78.2,888.9,14.9,995.7,4.6
		c57.3-5.7,115.5-3.4,173.5-4.6c13.5-0.2,27,0,40.8,0c0.5,4.8,0.7,7.8,0.7,10.8c0,59.1,0,118.3,0,179c-5.5,0.2-10.1,0.7-14.7,0.7
		c-34.6,0-69.2-0.2-104.1,0c-36.4,0.2-49.3,13.1-49.7,49.1C1042,276.9,1042.2,314.8,1042.2,354.4z"/>
</g>
</svg>
