<?xml version="1.0" encoding="utf-8"?>
<!-- Generator: Adobe Illustrator 18.1.1, SVG Export Plug-In . SVG Version: 6.00 Build 0)  -->
<!DOCTYPE svg PUBLIC "-//W3C//DTD SVG 1.1//EN" "http://www.w3.org/Graphics/SVG/1.1/DTD/svg11.dtd">
<svg version="1.1" id="Layer_1" xmlns="http://www.w3.org/2000/svg" xmlns:xlink="http://www.w3.org/1999/xlink" x="0px" y="0px"
	 viewBox="0 0 800 800" enable-background="new 0 0 800 800" xml:space="preserve">
<g>
	<g>
		<path fill="#FFFFFF" d="M101.6,695.8c0-196.9,0-393.8,0-590.7c196.9,0,393.8,0,590.7,0c0,196.9,0,393.8,0,590.7
			C495.4,695.8,298.5,695.8,101.6,695.8z M341.4,283.7c0-15.2,0.8-30.2-0.2-45.1c-1-14.6-2.8-29.4-6-43.7
			c-3.5-15.8-14.1-25.8-30.6-27.9c-9.7-1.2-19.7-2-29.4-1.3c-15.7,1.2-28.5,8.6-37.7,21.5c-10.7,15-14.4,32-14.4,50.2
			c0.1,79.3,0.4,158.7-0.1,238c-0.3,46.8,16.6,85.5,51.3,116.5c27.2,24.3,59,40.5,95.4,41.8c51.3,1.9,102.7,1.1,154.1,0.4
			c21.2-0.3,36.2-11.8,44.5-31.5c4.7-11.3,5.6-23.2,4.8-35.3c-2-31.5-22.4-51.2-53.9-51.5c-33.3-0.4-66.5-0.3-99.8-0.5
			c-7.5,0-15,0.2-22.4-0.5c-31.9-3-48.3-15.2-53.6-49.3c-3.4-21.7-1-44.3-1.2-66.6c0-0.7,0.4-1.4,0.8-2.5c2.5,0,4.8,0,7.2,0
			c58.1,0,116.1,0,174.2,0c28.1,0,44-13.3,48.1-40.7c1.1-7.5,0.9-15.3,0.5-23c-1.6-28.6-20.1-47.6-48.7-48.3
			c-42.9-0.9-85.8-0.6-128.7-0.7C378,283.7,360.6,283.7,341.4,283.7z"/>
		<path d="M341.4,283.7c19.2,0,36.6-0.1,54.1,0c42.9,0.1,85.8-0.2,128.7,0.7c28.7,0.6,47.1,19.7,48.7,48.3c0.4,7.6,0.7,15.4-0.5,23
			c-4.1,27.5-20,40.7-48.1,40.7c-58.1,0-116.1,0-174.2,0c-2.3,0-4.7,0-7.2,0c-0.3,1.1-0.8,1.8-0.8,2.5c0.2,22.2-2.2,44.8,1.2,66.6
			c5.3,34.1,21.7,46.3,53.6,49.3c7.4,0.7,14.9,0.5,22.4,0.5c33.3,0.2,66.5,0.1,99.8,0.5c31.6,0.3,52,20,53.9,51.5
			c0.8,12.1-0.1,24-4.8,35.3c-8.2,19.7-23.3,31.2-44.5,31.5c-51.4,0.7-102.8,1.5-154.1-0.4c-36.5-1.4-68.2-17.6-95.4-41.8
			c-34.7-31-51.6-69.7-51.3-116.5c0.5-79.3,0.2-158.7,0.1-238c0-18.2,3.8-35.2,14.4-50.2c9.2-13,22-20.4,37.7-21.5
			c9.7-0.7,19.7,0,29.4,1.3c16.4,2.1,27.1,12.1,30.6,27.9c3.2,14.3,5,29.1,6,43.7C342.2,253.5,341.4,268.5,341.4,283.7z"/>
	</g>
</g>
</svg>
