<?xml version="1.0" encoding="utf-8"?>
<!-- Generator: Adobe Illustrator 18.1.1, SVG Export Plug-In . SVG Version: 6.00 Build 0)  -->
<!DOCTYPE svg PUBLIC "-//W3C//DTD SVG 1.1//EN" "http://www.w3.org/Graphics/SVG/1.1/DTD/svg11.dtd">
<svg version="1.1" id="Layer_1" xmlns="http://www.w3.org/2000/svg" xmlns:xlink="http://www.w3.org/1999/xlink" x="0px" y="0px"
	 viewBox="0 0 1920 1080" enable-background="new 0 0 1920 1080" xml:space="preserve">
<g>
	<g>
		<path d="M829.9,271.6c43.8,0,83.6-0.2,123.6,0c98,0.2,196-0.5,294,1.5c65.5,1.4,107.7,45,111.2,110.4c0.8,17.4,1.5,35.2-1.2,52.6
			c-9.3,62.8-45.7,92.9-109.9,92.9c-132.7,0-265.2,0-398.1,0c-5.2,0-10.7,0-16.4,0c-0.7,2.5-1.9,4.1-1.9,5.8
			c0.5,50.8-5.1,102.4,2.7,152.2c12.2,77.9,49.6,105.8,122.5,112.7c16.9,1.5,34,1.2,51.1,1.2c76.2,0.5,152,0.2,228,1.2
			c72.3,0.7,118.8,45.7,123.2,117.6c1.9,27.6-0.2,54.8-11,80.7c-18.8,45-53.3,71.3-101.7,71.9c-117.5,1.5-234.9,3.4-352.1-0.8
			c-83.4-3.2-155.9-40.3-218-95.5c-79.2-70.9-118-159.3-117.3-266.3c1.2-181.3,0.5-362.6,0.2-543.8c0-41.6,8.6-80.4,32.8-114.8
			c21-29.8,50.3-46.5,86.2-49.1c22.2-1.5,45,0,67.2,3c37.4,4.7,62,27.6,69.9,63.8c7.3,32.7,11.5,66.5,13.7,99.9
			C831.8,202.5,829.9,236.9,829.9,271.6z"/>
	</g>
</g>
</svg>
